<svg width="16" height="17" viewBox="0 0 16 17" fill="none" xmlns="http://www.w3.org/2000/svg">
<path id="Vector" d="M8 16.9092C3.58172 16.9092 0 13.3274 0 8.90918C0 4.4909 3.58172 0.90918 8 0.90918C12.4182 0.90918 16 4.4909 16 8.90918C16 13.3274 12.4182 16.9092 8 16.9092ZM10.6164 7.90918H9.6C9.26864 7.90918 9 8.17782 9 8.50918C9 8.84054 9.26864 9.10918 9.6 9.10918H11.8C12.1314 9.10918 12.4 8.84054 12.4 8.50918V5.90918C12.4 5.57781 12.1314 5.30918 11.8 5.30918C11.4686 5.30918 11.2 5.57781 11.2 5.90918V6.50882C10.4703 5.53743 9.3088 4.90918 8.00008 4.90918C6.77056 4.90918 5.67676 5.43747 4.93857 6.32568C4.72677 6.58052 4.76166 6.95882 5.01651 7.17062C5.27136 7.38246 5.64965 7.3475 5.86146 7.09268C6.37059 6.48007 7.1256 6.10918 8.00008 6.10918C9.19392 6.10918 10.2139 6.85672 10.6164 7.90918ZM4.8 11.9092V11.3092C5.52955 12.2806 6.69104 12.9092 8.00008 12.9092C9.22016 12.9092 10.3233 12.362 11.0571 11.4988C11.2718 11.2463 11.2411 10.8677 10.9886 10.653C10.7362 10.4384 10.3575 10.4691 10.1429 10.7216C9.62944 11.3255 8.85656 11.7092 8.00008 11.7092C6.88376 11.7092 5.91887 11.0555 5.46935 10.1092H6.4C6.73136 10.1092 7 9.84054 7 9.50918C7 9.17782 6.73136 8.90918 6.4 8.90918H4.2C3.86863 8.90918 3.6 9.17782 3.6 9.50918V11.9092C3.6 12.2405 3.86863 12.5092 4.2 12.5092C4.53137 12.5092 4.8 12.2405 4.8 11.9092Z" fill="#0078D4"/>
</svg>
