<svg width="16" height="17" viewBox="0 0 16 17" fill="none" xmlns="http://www.w3.org/2000/svg">
<path id="Vector" d="M8 0.90918C12.4182 0.90918 16 4.4909 16 8.90918C16 13.3274 12.4182 16.9092 8 16.9092C3.58172 16.9092 0 13.3274 0 8.90918C0 4.4909 3.58172 0.90918 8 0.90918ZM10.5758 6.48492L7 10.0606L5.42426 8.48494C5.18995 8.25062 4.81005 8.25062 4.57574 8.48494C4.34142 8.71926 4.34142 9.0991 4.57574 9.33342L6.57576 11.3334C6.81008 11.5677 7.18992 11.5677 7.42424 11.3334L11.4242 7.33342C11.6586 7.09913 11.6586 6.71923 11.4242 6.48492C11.1899 6.2506 10.8101 6.2506 10.5758 6.48492Z" fill="#0E700E"/>
</svg>
