<svg width="16" height="17" viewBox="0 0 16 17" fill="none" xmlns="http://www.w3.org/2000/svg">
<path id="Vector" d="M10.6 10.1092H7.4C7.0688 10.1092 6.8 9.84038 6.8 9.50918V4.70918C6.8 4.37798 7.0688 4.10918 7.4 4.10918C7.7312 4.10918 8 4.37798 8 4.70918V8.90918H10.6C10.9312 8.90918 11.2 9.17798 11.2 9.50918C11.2 9.84038 10.9312 10.1092 10.6 10.1092ZM8 0.90918C3.5824 0.90918 0 4.49158 0 8.90918C0 13.3268 3.5824 16.9092 8 16.9092C12.4176 16.9092 16 13.3268 16 8.90918C16 4.49158 12.4176 0.90918 8 0.90918Z" fill="#707070"/>
</svg>
